<?xml version="1.0" encoding="utf-8"?>
<!-- Generator: Adobe Illustrator 27.5.0, SVG Export Plug-In . SVG Version: 6.00 Build 0)  -->
<svg version="1.1" xmlns="http://www.w3.org/2000/svg" xmlns:xlink="http://www.w3.org/1999/xlink" x="0px" y="0px"
	 viewBox="0 0 900 500" style="enable-background:new 0 0 900 500;" xml:space="preserve">
<g id="BACKGROUND">
	<rect style="fill:#FFFFFF;stroke:#000000;stroke-miterlimit:10;" width="900" height="500"/>
</g>
<g id="OBJECTS">
	<g>
		<defs>
			<rect id="SVGID_1_" width="900" height="500"/>
		</defs>
		<clipPath id="SVGID_00000011752939506946705340000007786519954013647492_">
			<use xlink:href="#SVGID_1_"  style="overflow:visible;"/>
		</clipPath>
		<g style="clip-path:url(#SVGID_00000011752939506946705340000007786519954013647492_);">
			<g>
				<g>
					<path style="fill:#FFFFFF;" d="M721.93,211.856c-32.4-30.371-70.355-38.205-80.39-39.806
						c6.756-18.227,17.199-45.329,19.8-49.343c0.837-0.113,2.546-0.289,5.071-0.289c7.371,0,23.145,1.533,45.966,11.803
						c32.954,14.83,41.776,31.514,43.509,35.594L721.93,211.856z"/>
					<path style="fill:#A0C6F4;" d="M666.411,124.419c7.211,0,22.665,1.51,45.145,11.626c29.815,13.417,39.449,28.415,41.986,33.488
						l-31.826,39.404c-19.153-17.438-39.797-27.07-54.073-32.14c-10.126-3.596-18.415-5.437-23.382-6.331
						c7.466-20.065,15.592-40.721,18.319-45.886C663.466,124.498,664.749,124.419,666.411,124.419 M666.411,120.419
						c-4.01,0-6.07,0.423-6.07,0.423c-2.342,0.781-21.538,52.843-21.538,52.843s45.564,4.648,83.319,41.116l36.039-44.62
						c0,0-6.014-20.256-44.964-37.783C690.373,122.126,674.464,120.419,666.411,120.419L666.411,120.419z"/>
				</g>
				<path style="fill:none;stroke:#2A1E17;stroke-linecap:round;stroke-linejoin:round;stroke-miterlimit:10;" d="M645.493,177.728
					c0,0,44.802,4.526,72.408,29.868"/>
				<polygon style="fill:#A0C6F4;" points="684.18,175.543 700.894,143.044 718.072,176.936 				"/>
				<polygon style="fill:none;stroke:#2A1E17;stroke-linecap:round;stroke-linejoin:round;stroke-miterlimit:10;" points="
					687.43,175.079 704.144,142.58 721.322,176.472 				"/>
			</g>
			<path style="fill:none;stroke:#2A1E17;stroke-linecap:round;stroke-linejoin:round;stroke-miterlimit:10;" d="M671.74,118.444
				c0,0,50.233,4.525,81.459,41.635"/>
		</g>
		<path style="clip-path:url(#SVGID_00000011752939506946705340000007786519954013647492_);fill:#2A1E17;" d="M697.406,262.462
			c-2.758-2.028-4.569-3.389-4.569-3.389c0.765-1.019,12.854-13.898,19.852-24.275C712.69,234.798,698.535,263.292,697.406,262.462z
			"/>
		
			<path style="clip-path:url(#SVGID_00000011752939506946705340000007786519954013647492_);fill:none;stroke:#2A1E17;stroke-linecap:round;stroke-linejoin:round;stroke-miterlimit:10;" d="
			M526.12,168.592c1.346,2.244,1.945,1.346,5.834,1.047s9.424,2.543,11.368,7.33s1.346,5.535,0.299,6.133
			c-1.047,0.598-8.526,1.496-8.825,2.992"/>
		<path style="clip-path:url(#SVGID_00000011752939506946705340000007786519954013647492_);fill:#EAECEC;" d="M557.524,422.006"/>
		<g style="clip-path:url(#SVGID_00000011752939506946705340000007786519954013647492_);">
			<polygon style="fill:#F9865F;" points="626.892,412.053 623.407,406.163 611.044,426.77 614.289,429.266 			"/>
			<path style="fill:#F9865F;" d="M544.798,360.953c0,0-6.406-10.416-3.658-15.52l20.438,2.186L544.798,360.953z"/>
			<path d="M544.798,360.953l1.224,2.813l-3.775,14.724c-0.475,1.854,0.14,3.817,1.589,5.068l0,0l18.691-27.63
				c1.776-2.625,1.372-6.152-0.949-8.308l-4.177-3.879L544.798,360.953z"/>
			<path style="fill:#2A1E33;" d="M534.796,186.093c5.853-0.139,13.27-0.51,11.787-4.96c-1.483-4.45-7.046-15.576-19.655-12.238
				c0,0-4.45,3.709,1.113,10.384C533.603,185.954,534.796,186.093,534.796,186.093z"/>
			<path style="fill:#7595EC;" d="M564.421,347.866c0,0-9.991-29.499-1.537-42.45c6.978-10.689,29.773,6.697,32.897,9.04
				l16.31-29.457c0,0-3.765-5.279-13.01-10.448c-9.244-5.169-47.433-20.647-65.38,7.668c-6.633,10.465-6.734,55.373,5.986,72.583
				L564.421,347.866z"/>
			<path style="fill:none;stroke:#2A1E17;stroke-linecap:round;stroke-linejoin:round;stroke-miterlimit:10;" d="M564.421,347.866
				c0,0-9.991-29.499-1.537-42.45c6.978-10.689,29.773,6.697,32.897,9.04"/>
			<path style="fill:#7595EC;" d="M612.091,284.999c-7.418,7.808-29.411,45.848-34.357,64.029
				c-6.615,24.319-4.128,44.488,32.232,83.981l17.575-25.599c0,0-12.357-18.765-10.05-36.453
				c3.338-25.589,21.548-50.401,30.762-66.139L612.091,284.999z"/>
			<polygon style="fill:#2A1E17;" points="614.883,288.305 644.119,311.25 652.856,297.966 			"/>
			<path style="fill:#FF8A66;" d="M782.802,264.18c4.559,0.977,8.033,2.714,10.421,5.21s1.303,3.799,0.434,4.559
				c-0.868,0.76-4.233-0.109-7.164-2.714C783.562,268.63,782.802,264.18,782.802,264.18z"/>
			<path style="fill:#F9865F;" d="M692.837,259.074c0.765-1.019,12.854-13.898,19.852-24.275c0,0,21.154,23.703,23.448,24.468
				c0.853,0.284,6.039,0.216,12.48,0.15c10.884-0.113,25.352-0.221,28.555,1.38c5.097,2.549,8.156,3.823,9.43,7.391
				c1.274,3.568,1.776,5.899-1.274,6.117c-3.568,0.255-5.862-4.333-5.862-4.333s-2.915,1.761-10.45,4.588
				c0,0-27.108,10.524-45.228,5.434C718.841,278.603,692.837,259.074,692.837,259.074z"/>
			<path style="fill:#F9865F;" d="M528.514,164.404c-2.326,0.886-3.74,1.945-2.393,4.188c1.346,2.244,1.945,1.346,5.834,1.047
				s9.424,2.543,11.368,7.33s1.346,5.535,0.299,6.133c-1.047,0.598-8.526,1.496-8.825,2.992c-0.299,1.496,3.031,5.911,9.911,5.612
				l1.645-0.299c0,0,14.471,14.133,16.565,16.227c2.094,2.094,17.485,12.521,25.962,14.64c6.444,1.611,19.498-0.467,27.344-1.998
				c3.81-0.743,6.391-1.357,6.391-1.357s-5.887-10.605-7.084-26.909c0,0-14.084,2.263-23.444,4.316c0,0-21.841-12.176-32.461-17.561
				c0,0-9.274-11.368-13.612-12.864C541.677,164.404,531.655,163.207,528.514,164.404z"/>
			<path style="fill:#2A1E17;" d="M616.224,220.276c3.81-0.743,6.391-1.357,6.391-1.357s-7.121-8.977-8.318-25.281
				c0,0-3.219,3.47-2.218,12.704C613.338,217.947,616.224,220.276,616.224,220.276z"/>
			<path style="fill:#FFF7C9;" d="M613.953,191.812c0,0,0.197,19.925,5.535,28.236l1.915-0.766c0,0-25.156,29.429-33.291,48.657
				c-1.331,3.147,52.228,37.359,60.141,36.879c0,0,26.095-39.828,35.021-51.635l9.592,7.433c0,0,18.814-19.053,19.825-25.819
				c0,0-18.172-22.113-33.039-28.587c-14.867-6.474-28.151-17.566-44.121-17.265C621.705,189.207,613.953,191.812,613.953,191.812z"
				/>
			<polygon style="fill:#2A1E17;" points="692.865,260.617 683.273,253.184 684.801,249.02 			"/>
			<path style="fill:#F9865F;" d="M707.456,181.832c-1.679,5.223-6.529,20.334-11.939,22.2c-5.41,1.866-11.042-0.477-11.042-0.477
				l-5.763,2.949c-0.643,1.929-5.191,3.59-11.064,3.816c-4.349,0.167-6.997-5.417-5.71-9.46c0.591-1.856,2.798-11.006,2.798-11.006
				s4.664-17.163,8.954-20.707c4.291-3.544,8.323-7.055,19.774-2.425C711,173.811,707.456,181.832,707.456,181.832z"/>
			<path style="fill:#2A1E33;" d="M672.692,182.576c-0.77,3.208-4.106,9.623-6.287,8.468c-2.181-1.155-2.951-4.106-1.411-9.751
				s2.823-18.475,7.185-20.785c4.362-2.309,6.287,0.385,6.287,0.385s-1.924-9.366,3.721-10.649c0,0,1.924-0.898,1.155,5.517
				c0,0,2.181-5.902,9.238-5.132s9.494,10.649,9.494,10.649s0.513-2.694,3.721-2.694c3.207,0,8.083,4.747,6.928,10.007
				c0,0,8.209-2.569,12.573,3.977c4.362,6.543,3.849,13.728-6.672,16.551c-11,2.951-10.906-9.879-12.573-11.547
				c-1.668-1.668-3.464-3.592-9.623-1.283c-6.158,2.309-12.573-4.491-12.573-4.491s-1.026,8.211-2.053,8.981
				c-1.026,0.77-3.079,1.796-2.566-2.053c0.513-3.849,1.155-3.464,0.77-4.491s-2.121-4.265-5.773-1.411
				C670.126,176.033,672.692,182.576,672.692,182.576z"/>
			<path style="fill:none;stroke:#2A1E33;stroke-linecap:round;stroke-linejoin:round;stroke-miterlimit:10;" d="M674.438,184.013
				c-2.447-2.056-4.144-5.678-1.99-9.3s5.678-4.111,6.754-2.741s1.493,3.681,0.481,6.421"/>
			<path d="M614.289,429.266l1.224,2.813l-3.775,14.724c-0.475,1.854,0.14,3.817,1.589,5.068l0,0l18.691-27.63
				c1.776-2.625,1.372-6.152-0.949-8.308l-4.177-3.879L614.289,429.266z"/>
			<path style="fill:none;stroke:#2A1E33;stroke-linecap:round;stroke-linejoin:round;stroke-miterlimit:10;" d="M678.465,160.893
				c0,0-1.431-4.656-5.721-5.881"/>
			
				<line style="fill:none;stroke:#2A1E17;stroke-linecap:round;stroke-linejoin:round;stroke-miterlimit:10;" x1="587.525" y1="266.534" x2="639.307" y2="194.201"/>
			<path style="fill:none;stroke:#2A1E17;stroke-linecap:round;stroke-linejoin:round;stroke-miterlimit:10;" d="M660.65,199.261
				c-1.865,2.426-2.715,12.864,5.868,13.542s14.07-3.093,14.07-3.093"/>
			<path style="fill:none;stroke:#2A1E17;stroke-linecap:round;stroke-linejoin:round;stroke-miterlimit:10;" d="M546.015,165.899
				c0,0,5.919,7.834,6.849,10.625"/>
			<path style="fill:none;stroke:#2A1E17;stroke-linecap:round;stroke-linejoin:round;stroke-miterlimit:10;" d="M767.636,270.928
				c0,0,3.955,3.256,11.83-0.957c2.856-1.528,0.822-5.143-2.793-4.239c-3.615,0.904-7.908-0.452-7.908-0.452"/>
			<path style="fill:none;stroke:#2A1E17;stroke-linecap:round;stroke-linejoin:round;stroke-miterlimit:10;" d="M784.158,264.632
				c0,0,3.795,4.426,3.691,7.056"/>
			<path style="fill:none;stroke:#2A1E17;stroke-linecap:round;stroke-linejoin:round;stroke-miterlimit:10;" d="M728.323,264.15
				c0,0,3.43-4.571,7.815-4.884"/>
			<path style="fill:none;stroke:#2A1E17;stroke-linecap:round;stroke-linejoin:round;stroke-miterlimit:10;" d="M583.668,203.71
				c0,0,2.003-6.239,8.42-7.385"/>
			<path style="fill:none;stroke:#2A1E17;stroke-linecap:round;stroke-linejoin:round;stroke-miterlimit:10;" d="M601.056,298.385
				l-7.655,14.644c0,0-25.241,42.715-16.677,70.311"/>
			<path style="fill:none;stroke:#2A1E17;stroke-linecap:round;stroke-linejoin:round;stroke-miterlimit:10;" d="M623.418,347.391
				l24.835-42.572c0,0,32.55-47.21,35.881-53.871l11.487-21.251"/>
			<path style="fill:none;stroke:#2A1E17;stroke-linecap:round;stroke-linejoin:round;stroke-miterlimit:10;" d="M590.993,271.068
				c0,0,44.164,32.199,57.26,33.75"/>
			<path style="fill:none;stroke:#2A1E17;stroke-linecap:round;stroke-linejoin:round;stroke-miterlimit:10;" d="M613.953,191.812
				c0,0-0.04,20.207,5.408,28.491"/>
			<path style="fill:none;stroke:#2A1E17;stroke-linecap:round;stroke-linejoin:round;stroke-miterlimit:10;" d="M711.272,231.596
				c-1.387,8.329-19.825,25.819-19.825,25.819"/>
		</g>
		<path style="clip-path:url(#SVGID_00000011752939506946705340000007786519954013647492_);fill:#2A1E17;" d="M706.911,256.121"/>
		<path style="clip-path:url(#SVGID_00000011752939506946705340000007786519954013647492_);fill:#F9865F;" d="M789.613,315.892"/>
		
			<circle style="clip-path:url(#SVGID_00000011752939506946705340000007786519954013647492_);fill:#2A1E17;" cx="573.712" cy="332.7" r="2.623"/>
		<g style="clip-path:url(#SVGID_00000011752939506946705340000007786519954013647492_);">
			<polygon style="fill:none;stroke:#2A1E17;stroke-linecap:round;stroke-linejoin:round;stroke-miterlimit:10;" points="
				819.753,389.052 818.304,379.021 826.859,384.709 822.382,385.685 			"/>
			<path style="fill:none;stroke:#2A1E17;stroke-linecap:round;stroke-linejoin:round;stroke-miterlimit:10;" d="M536.012,217.817
				c-16.212-14.305-43.002,21.366,55.03,134.904c56.551,65.496,100.984,71.369,107.003,48.583
				c10.798-40.88-28.2-51.214-13.689-35.202c21.1,23.283,81.119,28.202,125.842,6.475c44.13-21.438,17.004-54.731,14.265-56.673"/>
			<circle style="fill:#2A1E17;" cx="810.904" cy="372.372" r="2.623"/>
			
				<line style="fill:none;stroke:#2A1E17;stroke-linecap:round;stroke-linejoin:round;stroke-miterlimit:10;" x1="772.744" y1="393.776" x2="850.477" y2="349.963"/>
			<circle style="fill:#2A1E17;" cx="537.629" cy="219.937" r="2.623"/>
		</g>
		
			<circle style="clip-path:url(#SVGID_00000011752939506946705340000007786519954013647492_);fill:#FF6D66;" cx="604.496" cy="165.795" r="5.626"/>
		<g style="clip-path:url(#SVGID_00000011752939506946705340000007786519954013647492_);">
			<path style="fill:#A0C6F4;" d="M502.405,122.884c-1.366,0-2.473,1.107-2.473,2.473s1.107,2.473,2.473,2.473
				s2.473-1.107,2.473-2.473S503.771,122.884,502.405,122.884L502.405,122.884z"/>
		</g>
		
			<circle style="clip-path:url(#SVGID_00000011752939506946705340000007786519954013647492_);fill:#FAD8B0;" cx="833.803" cy="427.59" r="2.473"/>
		<g style="clip-path:url(#SVGID_00000011752939506946705340000007786519954013647492_);">
			<path style="fill:#2A1E33;" d="M789.613,315.892l-26.588-12.477c-2.145-1.007-2.108-4.071,0.061-5.025l49.465-21.764
				c0.7-0.308,1.497-0.312,2.2-0.01l33.976,14.584L789.613,315.892z"/>
			<path style="fill:#C6CBCB;" d="M787.966,274.886c0.068,11.002,1.647,41.006,1.647,41.006l59.114-24.693l-1.326-41.753
				c-0.081-2.562-2.745-4.216-5.077-3.153l-50.898,23.194C789.309,270.452,787.951,272.56,787.966,274.886z"/>
			<path style="fill:none;stroke:#2A1E17;stroke-linecap:round;stroke-linejoin:round;stroke-miterlimit:10;" d="M789.613,315.892
				l59.114-24.693l-1.326-41.753c0,0-0.394-4.559-5.077-3.153"/>
			
				<line style="fill:none;stroke:#2A1E17;stroke-linecap:round;stroke-linejoin:round;stroke-miterlimit:10;" x1="818.225" y1="285.883" x2="822.216" y2="276.45"/>
			
				<line style="fill:none;stroke:#2A1E17;stroke-linecap:round;stroke-linejoin:round;stroke-miterlimit:10;" x1="822.216" y1="285.883" x2="826.207" y2="276.45"/>
		</g>
		
			<circle style="clip-path:url(#SVGID_00000011752939506946705340000007786519954013647492_);fill:#FF6D66;" cx="513.068" cy="386.314" r="2.473"/>
		
			<circle style="clip-path:url(#SVGID_00000011752939506946705340000007786519954013647492_);fill:#FF6D66;" cx="721.598" cy="398.567" r="3.436"/>
		<g style="clip-path:url(#SVGID_00000011752939506946705340000007786519954013647492_);">
			<path style="fill:#FFF7DC;" d="M538.699,422.985c4.025,1.93,15.733,6.798,31.23,6.696c0.848-0.006,1.503,0.745,1.397,1.586
				l-2.158,17.126c-0.077,0.61-0.537,1.097-1.141,1.21c-4.377,0.822-22.021,3.243-35.218-7.949
				c-0.412-0.349-0.578-0.912-0.439-1.433l4.361-16.327C536.96,423.042,537.903,422.603,538.699,422.985z"/>
			<path style="fill:none;stroke:#2A1E17;stroke-linecap:round;stroke-linejoin:round;stroke-miterlimit:10;" d="M540.25,428.018
				c0,0,7.625,10.712,10.343,12.247c2.718,1.535,17.396-7.214,17.396-7.214"/>
			
				<line style="fill:none;stroke:#2A1E17;stroke-linecap:round;stroke-linejoin:round;stroke-miterlimit:10;" x1="557.78" y1="438.771" x2="565.79" y2="447.005"/>
			
				<line style="fill:none;stroke:#2A1E17;stroke-linecap:round;stroke-linejoin:round;stroke-miterlimit:10;" x1="546.653" y1="437.185" x2="537.285" y2="439.731"/>
		</g>
		
			<rect x="774.996" y="220.387" style="clip-path:url(#SVGID_00000011752939506946705340000007786519954013647492_);fill:#FFE1C0;" width="8.948" height="8.948"/>
		<g style="clip-path:url(#SVGID_00000011752939506946705340000007786519954013647492_);">
			<polygon style="fill:#A0C6F4;" points="776.209,341.086 778.869,345.692 781.528,350.299 776.209,350.299 770.89,350.299 
				773.549,345.692 			"/>
		</g>
		<g style="clip-path:url(#SVGID_00000011752939506946705340000007786519954013647492_);">
			<path style="fill:none;stroke:#2A1E17;stroke-linecap:round;stroke-linejoin:round;stroke-miterlimit:10;" d="M561.153,137.008
				l0.693-20.913c-0.073-1.952,0.722-2.574,1.925-2.84c5.682-1.257,22.951-5.106,41.733,0.446c2.427,0.717,2.349,2.002,2.31,3.159
				l-0.671,19.938c-0.049,1.464-1.579,2.524-3.286,2.274c-5.484-0.803-12.942-1.051-20.517-0.987
				c-7.826,0.066-14.8,0.648-19.68,1.587C561.797,140.03,561.098,138.642,561.153,137.008z"/>
			<path style="fill:none;stroke:#2A1E17;stroke-linecap:round;stroke-linejoin:round;stroke-miterlimit:10;" d="M567.473,133.95
				l10.932-12.798l12.102,11.943C586.335,131.737,567.473,133.95,567.473,133.95z"/>
			<polyline style="fill:none;stroke:#2A1E17;stroke-linecap:round;stroke-linejoin:round;stroke-miterlimit:10;" points="
				585.106,127.077 593.944,120.004 601.392,125.32 601.672,133.63 590.507,133.096 			"/>
			
				<ellipse transform="matrix(0.1006 -0.9949 0.9949 0.1006 393.366 675.1261)" style="fill:none;stroke:#2A1E17;stroke-linecap:round;stroke-linejoin:round;stroke-miterlimit:10;" cx="570.092" cy="119.994" rx="1.825" ry="2.152"/>
		</g>
		<g style="clip-path:url(#SVGID_00000011752939506946705340000007786519954013647492_);">
			<path style="fill:none;stroke:#2A1E17;stroke-linecap:round;stroke-linejoin:round;stroke-miterlimit:10;" d="M772.547,408.708
				l7.334,13.542c0.772,1.213,0.498,1.904-0.167,2.52c-3.142,2.91-12.68,11.775-26.675,15.231c-1.808,0.446-2.237-0.398-2.642-1.147
				l-6.985-12.914c-0.513-0.948,0.065-2.19,1.242-2.666c3.782-1.528,8.612-4.144,13.4-7c4.947-2.951,9.16-5.913,11.911-8.324
				C771.015,407.028,771.974,407.65,772.547,408.708z"/>
			<path style="fill:none;stroke:#2A1E17;stroke-linecap:round;stroke-linejoin:round;stroke-miterlimit:10;" d="M769.669,412.999
				l-2.187,12.193l-12.127-3.088C758.511,421.417,769.669,412.999,769.669,412.999z"/>
			<polyline style="fill:none;stroke:#2A1E17;stroke-linecap:round;stroke-linejoin:round;stroke-miterlimit:10;" points="
				761.023,423.921 758.039,431.699 751.332,431.091 748.065,425.916 755.355,422.105 			"/>
			
				<ellipse transform="matrix(0.9095 -0.4157 0.4157 0.9095 -105.8023 359.6966)" style="fill:none;stroke:#2A1E17;stroke-linecap:round;stroke-linejoin:round;stroke-miterlimit:10;" cx="773.193" cy="422.838" rx="1.584" ry="1.343"/>
		</g>
		<g style="clip-path:url(#SVGID_00000011752939506946705340000007786519954013647492_);">
			<g>
				<path style="fill:#FFFFFF;stroke:#2A1E17;stroke-linecap:round;stroke-linejoin:round;stroke-miterlimit:10;" d="
					M736.847,177.528l29.795,22.805c0.654,0.5,1.59,0.367,2.079-0.295l4.498-6.097c0.469-0.636,0.352-1.529-0.265-2.023
					l-29.375-23.504c-0.656-0.525-1.619-0.395-2.112,0.286l-4.919,6.797C736.082,176.143,736.214,177.044,736.847,177.528z"/>
				<polygon style="fill:#FF6D66;" points="739.053,176.511 746.279,181.581 750.542,176.492 743.315,170.465 				"/>
				<polygon style="fill:#FAD8B0;" points="748.999,183.558 756.234,189.298 760.112,184.527 752.829,178.617 				"/>
				<polygon style="fill:#A0C6F4;" points="758.667,191.504 765.893,196.574 769.335,192.151 762.491,186.424 				"/>
			</g>
			<g>
				<path style="fill:#FFFFFF;stroke:#2A1E17;stroke-linecap:round;stroke-linejoin:round;stroke-miterlimit:10;" d="
					M796.298,145.646l6.789,57.056c0.149,1.251,1.295,2.138,2.544,1.967l11.496-1.574c1.199-0.164,2.055-1.246,1.937-2.451
					l-5.573-57.341c-0.125-1.281-1.295-2.198-2.569-2.012l-12.713,1.859C797.001,143.327,796.153,144.434,796.298,145.646z"/>
				<polygon style="fill:#FF6D66;" points="799.77,146.98 801.922,160.325 812.06,159.571 810.958,145.201 				"/>
				<polygon style="fill:#91BA83;" points="802.657,165.422 804.083,179.493 813.461,178.655 812.169,164.35 				"/>
				<polygon style="fill:#FAD8B0;" points="804.261,184.52 806.413,197.865 814.942,196.92 813.919,183.291 				"/>
			</g>
			<path style="fill:#FFFFFF;stroke:#2A1E17;stroke-linecap:round;stroke-linejoin:round;stroke-miterlimit:10;" d="
				M781.476,157.794l18.802,55.266c0.323,0.949,1.361,1.449,2.305,1.109l11.776-4.239c0.906-0.326,1.392-1.31,1.102-2.227
				l-17.655-55.813c-0.309-0.976-1.372-1.496-2.332-1.14l-12.923,4.786C781.64,155.873,781.163,156.874,781.476,157.794z"/>
			<polygon style="fill:#A0C6F4;" points="785.295,158.801 790.174,171.407 799.934,168.561 795.868,154.735 			"/>
			<polygon style="fill:#F9865F;" points="791.953,176.24 796.274,189.707 805.273,186.936 801.035,173.213 			"/>
			<polygon style="fill:#FAD8B0;" points="797.494,194.587 802.374,207.193 810.52,204.494 806.686,191.376 			"/>
		</g>
		<g style="clip-path:url(#SVGID_00000011752939506946705340000007786519954013647492_);">
			<path style="fill:#7595EC;" d="M639.778,251.411h-94.944c-3.029,0-5.484-2.455-5.484-5.484v-12.842
				c0-3.029,2.455-5.484,5.484-5.484h94.944c3.029,0,5.484,2.455,5.484,5.484v12.842
				C645.262,248.955,642.807,251.411,639.778,251.411z"/>
			<path style="fill:#FFFFFF;" d="M604.206,238.234h-51.76c-1,0-1.812-0.811-1.812-1.812v0c0-1.001,0.811-1.812,1.812-1.812h51.76
				c1.001,0,1.812,0.811,1.812,1.812v0C606.018,237.423,605.207,238.234,604.206,238.234z"/>
			
				<line style="fill:none;stroke:#2A1E17;stroke-linecap:round;stroke-linejoin:round;stroke-miterlimit:10;" x1="551.152" y1="242.928" x2="639.144" y2="242.928"/>
		</g>
		<g style="clip-path:url(#SVGID_00000011752939506946705340000007786519954013647492_);">
			<path style="fill:#91BA83;" d="M507.633,184.454l-1.499-1.641l-4.96,4.53l1.499,1.641c0.632,0.692,1.705,0.74,2.397,0.108
				l2.454-2.241C508.216,186.22,508.265,185.146,507.633,184.454z"/>
			<path style="fill:none;stroke:#2A1E17;stroke-linecap:round;stroke-linejoin:round;stroke-miterlimit:10;" d="M498.984,173.837
				l7.061,7.73c0.365,0.4,0.337,1.019-0.063,1.384l-4.879,4.457c-0.4,0.365-1.019,0.337-1.384-0.063l-7.061-7.73
				c-0.365-0.4-0.337-1.019,0.063-1.384l4.879-4.457C497.999,173.41,498.619,173.438,498.984,173.837z"/>
		</g>
		<g style="clip-path:url(#SVGID_00000011752939506946705340000007786519954013647492_);">
			<rect x="476.409" y="214.742" style="fill:#FF6D66;" width="8.871" height="8.1"/>
			<polyline style="fill:none;stroke:#2A1E17;stroke-linecap:round;stroke-linejoin:round;stroke-miterlimit:10;" points="
				476.409,209.53 476.409,214.742 471.103,214.742 			"/>
		</g>
		<g style="clip-path:url(#SVGID_00000011752939506946705340000007786519954013647492_);">
			<rect x="768.659" y="123.273" style="fill:#FAD8B0;" width="8.871" height="8.1"/>
			<polyline style="fill:none;stroke:#2A1E17;stroke-linecap:round;stroke-linejoin:round;stroke-miterlimit:10;" points="
				768.659,118.06 768.659,123.273 763.352,123.273 			"/>
		</g>
		<g style="clip-path:url(#SVGID_00000011752939506946705340000007786519954013647492_);">
			<text transform="matrix(1 0 0 1 75.5565 193.5931)"><tspan x="0" y="0" style="fill:#2A1E33; font-family:'Poppins-Bold'; font-size:42.8928px; letter-spacing:-1;">We work</tspan><tspan x="0" y="36.611" style="fill:#2A1E33; font-family:'Poppins-Bold'; font-size:42.8928px; letter-spacing:-1;">your ideas</tspan></text>
		</g>
		<g style="clip-path:url(#SVGID_00000011752939506946705340000007786519954013647492_);">
			<text transform="matrix(1 0 0 1 75.514 391.55)" style="fill:#2A1E33; font-family:'Poppins-Bold'; font-size:10px;">&gt; see creative work</text>
		</g>
		<path style="clip-path:url(#SVGID_00000011752939506946705340000007786519954013647492_);fill:#2A1E33;" d="M136.3,309.398H83.741
			c-4.52,0-8.184-3.664-8.184-8.184v-0.931c0-4.52,3.664-8.184,8.184-8.184H136.3c4.52,0,8.184,3.664,8.184,8.184v0.931
			C144.484,305.734,140.82,309.398,136.3,309.398z"/>
		<g style="clip-path:url(#SVGID_00000011752939506946705340000007786519954013647492_);">
			<text transform="matrix(1 0 0 1 86.7842 304.5231)" style="fill:#FFFFFF; font-family:'Poppins-Bold'; font-size:10px;">Click Here</text>
		</g>
		<g style="clip-path:url(#SVGID_00000011752939506946705340000007786519954013647492_);">
			<rect x="75.514" y="256.025" style="fill:none;" width="241.887" height="22.736"/>
			<text transform="matrix(1 0 0 1 75.514 263.4237)"><tspan x="0" y="0" style="fill:#2A1E33; font-family:'Poppins-Regular'; font-size:10px;">Description of services, who we are as a company </tspan><tspan x="0" y="12" style="fill:#2A1E33; font-family:'Poppins-Regular'; font-size:10px;">and some filler text about the company</tspan></text>
		</g>
		
			<line style="clip-path:url(#SVGID_00000011752939506946705340000007786519954013647492_);fill:none;stroke:#2A1E17;stroke-miterlimit:10;" x1="75.514" y1="148.508" x2="89.869" y2="148.508"/>
		<g style="clip-path:url(#SVGID_00000011752939506946705340000007786519954013647492_);">
			<path style="fill:none;stroke:#2A1E17;stroke-linecap:round;stroke-linejoin:round;stroke-miterlimit:10;" d="M528.571,173.339
				c-91.964-38.122-162.762,35.298,10.593,147.725c13.65,8.853,34.584,11.959,34.584,11.959"/>
			<circle style="fill:#2A1E17;" cx="443.989" cy="175.903" r="2.623"/>
			<g>
				<polygon style="fill:none;stroke:#2A1E17;stroke-linecap:round;stroke-linejoin:round;stroke-miterlimit:10;" points="
					427.301,161.51 430.171,158.755 436.769,162.53 440.085,172.762 429.958,168.523 				"/>
				<polygon style="fill:none;stroke:#2A1E17;stroke-linecap:round;stroke-linejoin:round;stroke-miterlimit:10;" points="
					430.171,158.755 427.301,161.51 425.694,159.558 428.449,156.918 				"/>
				
					<line style="fill:none;stroke:#2A1E17;stroke-linecap:round;stroke-linejoin:round;stroke-miterlimit:10;" x1="440.085" y1="172.762" x2="433.5" y2="165.527"/>
			</g>
		</g>
		<g style="clip-path:url(#SVGID_00000011752939506946705340000007786519954013647492_);">
			<path style="fill:#FFFFFF;stroke:#2A1E17;stroke-linecap:round;stroke-linejoin:round;stroke-miterlimit:10;" d="
				M456.025,356.342l7.148,36.833c0.157,0.808,0.946,1.33,1.751,1.159l7.412-1.574c0.773-0.164,1.278-0.91,1.145-1.689
				l-6.369-37.077c-0.142-0.829-0.949-1.37-1.769-1.188l-8.19,1.818C456.373,354.798,455.874,355.56,456.025,356.342z"/>
			<polygon style="fill:#FF6D66;" points="458.351,357.045 460.39,365.634 466.956,364.658 465.551,355.352 			"/>
			<polygon style="fill:#FAD8B0;" points="461.112,368.918 462.713,378.013 468.78,377.019 467.256,367.765 			"/>
			<polygon style="fill:#A0C6F4;" points="463.069,381.279 465.108,389.867 470.618,388.844 469.301,380.017 			"/>
		</g>
		<g style="clip-path:url(#SVGID_00000011752939506946705340000007786519954013647492_);">
			<polygon style="fill:none;stroke:#2A1E17;stroke-linecap:round;stroke-linejoin:round;stroke-miterlimit:10;" points="
				660.71,448.656 690.919,440.569 692.071,443.843 661.522,451.773 			"/>
			<g>
				
					<line style="fill:none;stroke:#2A1E17;stroke-linecap:round;stroke-linejoin:round;stroke-miterlimit:10;" x1="656.519" y1="444.431" x2="657.39" y2="447.174"/>
				
					<line style="fill:none;stroke:#2A1E17;stroke-linecap:round;stroke-linejoin:round;stroke-miterlimit:10;" x1="655.668" y1="446.22" x2="658.217" y2="445.344"/>
			</g>
			<g>
				
					<line style="fill:none;stroke:#2A1E17;stroke-linecap:round;stroke-linejoin:round;stroke-miterlimit:10;" x1="655.053" y1="454.905" x2="656.696" y2="460.079"/>
				
					<line style="fill:none;stroke:#2A1E17;stroke-linecap:round;stroke-linejoin:round;stroke-miterlimit:10;" x1="653.653" y1="458.186" x2="658.192" y2="456.743"/>
			</g>
			<g>
				
					<line style="fill:none;stroke:#2A1E17;stroke-linecap:round;stroke-linejoin:round;stroke-miterlimit:10;" x1="648.149" y1="446.366" x2="650.293" y2="453.218"/>
				
					<line style="fill:none;stroke:#2A1E17;stroke-linecap:round;stroke-linejoin:round;stroke-miterlimit:10;" x1="646.018" y1="450.633" x2="652.38" y2="448.603"/>
			</g>
		</g>
		<g style="clip-path:url(#SVGID_00000011752939506946705340000007786519954013647492_);">
			
				<polygon style="fill:none;stroke:#2A1E17;stroke-width:0.6707;stroke-linecap:round;stroke-linejoin:round;stroke-miterlimit:10;" points="
				440.448,120.495 421.331,111.865 422.123,109.677 441.35,118.532 			"/>
			<g>
				
					<line style="fill:none;stroke:#2A1E17;stroke-width:0.6707;stroke-linecap:round;stroke-linejoin:round;stroke-miterlimit:10;" x1="440.83" y1="124.467" x2="441.542" y2="122.673"/>
				
					<line style="fill:none;stroke:#2A1E17;stroke-width:0.6707;stroke-linecap:round;stroke-linejoin:round;stroke-miterlimit:10;" x1="442.031" y1="123.9" x2="440.336" y2="123.273"/>
			</g>
			<g>
				
					<line style="fill:none;stroke:#2A1E17;stroke-width:0.6707;stroke-linecap:round;stroke-linejoin:round;stroke-miterlimit:10;" x1="446.039" y1="119.653" x2="447.382" y2="116.269"/>
				
					<line style="fill:none;stroke:#2A1E17;stroke-width:0.6707;stroke-linecap:round;stroke-linejoin:round;stroke-miterlimit:10;" x1="448.158" y1="118.544" x2="445.19" y2="117.365"/>
			</g>
			<g>
				
					<line style="fill:none;stroke:#2A1E17;stroke-width:0.6707;stroke-linecap:round;stroke-linejoin:round;stroke-miterlimit:10;" x1="445.996" y1="127.017" x2="447.793" y2="122.549"/>
				
					<line style="fill:none;stroke:#2A1E17;stroke-width:0.6707;stroke-linecap:round;stroke-linejoin:round;stroke-miterlimit:10;" x1="448.915" y1="125.707" x2="444.75" y2="124.06"/>
			</g>
		</g>
		<g style="clip-path:url(#SVGID_00000011752939506946705340000007786519954013647492_);">
			<path style="fill:#FAD8B0;" d="M511.886,281.936c-13.475-9.701-26.713-24.777-20.906-40.263c0,0,9.292-6.194,24.003,1.549
				c14.712,7.743,14.712,7.743,14.712,7.743L511.886,281.936z"/>
			<g>
				<path style="fill:#FFFFFF;" d="M505.778,346.565c-6.063-2.866-31.95-16.343-36.556-39.371
					c-3.979-19.898,11.235-46.722,18.858-58.573c-0.49,15.731,15.308,29.044,22.93,34.533c7.72,5.558,13.397,8.276,21.231,11.218
					L505.778,346.565z"/>
				<path style="fill:#FAD8B0;" d="M486.921,253.301c1.653,10.455,9.632,21.293,23.212,31.07c7.333,5.28,12.847,8.038,20.017,10.81
					l-25.045,49.394c-7.631-3.797-30.209-16.66-34.412-37.675C467.199,289.429,479.045,266.257,486.921,253.301 M490.98,241.673
					c0,0-28.649,38.715-23.229,65.815c5.42,27.1,38.715,41.038,38.715,41.038l27.875-54.975c-8.711-3.194-14.37-5.794-22.455-11.614
					C498.412,272.235,485.173,257.159,490.98,241.673L490.98,241.673z"/>
			</g>
			<path style="fill:none;stroke:#2A1E17;stroke-linecap:round;stroke-linejoin:round;stroke-miterlimit:10;" d="M483.447,264.171
				c0,0,1.666,15.552,17.218,23.884"/>
			
				<line style="fill:none;stroke:#2A1E17;stroke-linecap:round;stroke-linejoin:round;stroke-miterlimit:10;" x1="508.997" y1="293.609" x2="524.549" y2="301.941"/>
			<path style="fill:none;stroke:#2A1E17;stroke-linecap:round;stroke-linejoin:round;stroke-miterlimit:10;" d="M485.668,286.389
				c0,0,4.999,11.109,21.106,18.329"/>
			<path style="fill:none;stroke:#2A1E17;stroke-linecap:round;stroke-linejoin:round;stroke-miterlimit:10;" d="M472.894,288.055
				c0,0,0.555,11.664,8.331,15.552"/>
			<path style="fill:none;stroke:#2A1E17;stroke-linecap:round;stroke-linejoin:round;stroke-miterlimit:10;" d="M490.667,247.508
				c0,0-1.441,14.979,21.219,34.428"/>
			<path style="fill:none;stroke:#2A1E17;stroke-linecap:round;stroke-linejoin:round;stroke-miterlimit:10;" d="M498.999,250.285
				c0,0,7.221-0.555,17.774,7.221"/>
			<path style="fill:none;stroke:#2A1E17;stroke-linecap:round;stroke-linejoin:round;stroke-miterlimit:10;" d="M465.043,298.111
				c-0.464,7.428,0.464,34.356,39.463,51.534"/>
		</g>
		<g style="clip-path:url(#SVGID_00000011752939506946705340000007786519954013647492_);">
			<path style="fill:#91BA83;" d="M714.073,283.13l-16.542,33.152c0,0,11.22,4.129,2.449,16.991c0,0,20.737,8.599,34.306-13.737
				C747.855,297.201,714.073,283.13,714.073,283.13z"/>
			<g>
				<path style="fill:#FFFFFF;" d="M676.213,384.447c-8.371,0-17.205-3.418-26.276-10.164l30.946-51.263l18.405,11.59l0.117,0.049
					c0.171,0.071,4.268,1.741,10.051,1.742h0.001c4.65,0,10.517-1.086,16.233-5.131l-22.62,38.698
					c-0.053,0.075-9.791,14.478-26.855,14.479C676.214,384.447,676.213,384.447,676.213,384.447z"/>
				<path style="fill:#96BD89;" d="M681.377,325.104l17.004,10.708l0.215,0.135l0.235,0.097c0.183,0.076,4.547,1.856,10.625,1.856
					c3.548,0,7.767-0.597,12.105-2.539l-19.737,33.766c-0.646,0.939-9.809,13.819-25.609,13.819c-7.708,0-15.867-3.048-24.284-9.066
					L681.377,325.104 M734.286,319.537c-7.667,12.62-17.62,15.364-24.83,15.364c-5.551,0-9.476-1.627-9.476-1.627l-19.591-12.337
					l-32.433,53.727c10.861,8.372,20.334,11.283,28.26,11.283c18.12,0,28.15-15.221,28.15-15.221L734.286,319.537L734.286,319.537z"
					/>
			</g>
			<path style="fill:none;stroke:#2A1E17;stroke-linecap:round;stroke-linejoin:round;stroke-miterlimit:10;" d="M697.531,316.283
				c0,0,12.338,4.356,2.449,16.991"/>
			<path style="fill:none;stroke:#2A1E17;stroke-linecap:round;stroke-linejoin:round;stroke-miterlimit:10;" d="M680.005,319.785
				c0,0,16.806,15.394,26.11,15.29s20.212-2.319,26.649-13.417"/>
			<path style="fill:none;stroke:#2A1E17;stroke-linecap:round;stroke-linejoin:round;stroke-miterlimit:10;" d="M682.066,339.7
				c0,0,11.535,10.244,24.435,6.953"/>
			<path style="fill:none;stroke:#2A1E17;stroke-linecap:round;stroke-linejoin:round;stroke-miterlimit:10;" d="M694.182,355.007
				c0,0,6.052,4.536,14.512,0.246"/>
			<path style="fill:none;stroke:#2A1E17;stroke-linecap:round;stroke-linejoin:round;stroke-miterlimit:10;" d="M666.341,361.319
				c0,0,13.965,13.888,35.948,4.727"/>
			<path style="fill:none;stroke:#2A1E17;stroke-linecap:round;stroke-linejoin:round;stroke-miterlimit:10;" d="M673.94,347.773
				c0,0,5.698,4.074,9.267,5.374"/>
			<path style="fill:none;stroke:#2A1E17;stroke-linecap:round;stroke-linejoin:round;stroke-miterlimit:10;" d="M716.914,292.753
				c0,0,12.75,4.17,14.277,20.993"/>
			<path style="fill:none;stroke:#2A1E17;stroke-linecap:round;stroke-linejoin:round;stroke-miterlimit:10;" d="M723.322,313.543
				c0,0,5.87,9.083-4.051,18.167"/>
			<path style="fill:none;stroke:#2A1E17;stroke-linecap:round;stroke-linejoin:round;stroke-miterlimit:10;" d="M649.137,377.199
				c0,0,32.014,27.419,55.249-4.643"/>
		</g>
		
			<line style="clip-path:url(#SVGID_00000011752939506946705340000007786519954013647492_);fill:none;stroke:#FF6D66;stroke-linecap:round;stroke-linejoin:round;stroke-miterlimit:10;" x1="418.051" y1="272.782" x2="425.515" y2="272.782"/>
		
			<line style="clip-path:url(#SVGID_00000011752939506946705340000007786519954013647492_);fill:none;stroke:#FF6D66;stroke-linecap:round;stroke-linejoin:round;stroke-miterlimit:10;" x1="833.803" y1="183.016" x2="841.266" y2="183.016"/>
		
			<line style="clip-path:url(#SVGID_00000011752939506946705340000007786519954013647492_);fill:none;stroke:#FAD8B0;stroke-miterlimit:10;" x1="633.658" y1="131.809" x2="641.121" y2="131.809"/>
		
			<line style="clip-path:url(#SVGID_00000011752939506946705340000007786519954013647492_);fill:none;stroke:#FAD8B0;stroke-miterlimit:10;" x1="848.052" y1="221.726" x2="855.398" y2="223.046"/>
		
			<line style="clip-path:url(#SVGID_00000011752939506946705340000007786519954013647492_);fill:none;stroke:#A0C6F4;stroke-linecap:round;stroke-linejoin:round;stroke-miterlimit:10;" x1="554.879" y1="407.951" x2="562.342" y2="407.951"/>
		<g style="clip-path:url(#SVGID_00000011752939506946705340000007786519954013647492_);">
			<text transform="matrix(1 0 0 1 434.5906 38.0911)" style="fill:#2A1E33; font-family:'Poppins-Regular'; font-size:10px;">Home</text>
		</g>
		<g style="clip-path:url(#SVGID_00000011752939506946705340000007786519954013647492_);">
			<text transform="matrix(1 0 0 1 490.4114 37.5477)" style="fill:#2A1E33; font-family:'Poppins-Bold'; font-size:10px;">About us</text>
		</g>
		<g style="clip-path:url(#SVGID_00000011752939506946705340000007786519954013647492_);">
			<text transform="matrix(1 0 0 1 558.5238 37.5477)" style="fill:#2A1E33; font-family:'Poppins-Regular'; font-size:10px;">Gallery</text>
		</g>
		<g style="clip-path:url(#SVGID_00000011752939506946705340000007786519954013647492_);">
			<text transform="matrix(1 0 0 1 614.2808 37.5477)" style="fill:#2A1E33; font-family:'Poppins-Regular'; font-size:10px;">Contact us</text>
		</g>
		<g style="clip-path:url(#SVGID_00000011752939506946705340000007786519954013647492_);">
			<text transform="matrix(1 0 0 1 693.2848 37.5477)" style="fill:#2A1E33; font-family:'Poppins-Regular'; font-size:10px;">Search</text>
		</g>
		<path style="clip-path:url(#SVGID_00000011752939506946705340000007786519954013647492_);fill:#E3E6E6;" d="M832.973,40.759
			h-83.198c-2.997,0-5.426-2.429-5.426-5.426v-0.53c0-2.997,2.429-5.426,5.426-5.426h83.198c2.997,0,5.426,2.429,5.426,5.426v0.53
			C838.399,38.33,835.97,40.759,832.973,40.759z"/>
		<g style="clip-path:url(#SVGID_00000011752939506946705340000007786519954013647492_);">
			<circle style="fill:#F6F6F6;" cx="179.636" cy="352.809" r="15.904"/>
			<g style="opacity:0.31;">
				<defs>
					
						<circle id="SVGID_00000093175088251183204700000016776611711794148276_" style="opacity:0.31;" cx="179.636" cy="352.809" r="15.904"/>
				</defs>
				<clipPath id="SVGID_00000121961979739993797040000009791914652707600798_">
					<use xlink:href="#SVGID_00000093175088251183204700000016776611711794148276_"  style="overflow:visible;"/>
				</clipPath>
				<path style="clip-path:url(#SVGID_00000121961979739993797040000009791914652707600798_);fill:#959595;" d="M166.091,366.946
					c0,0,3.943-7.347,9.139-9.319s15.77,0.358,18.1,6.093s-4.839,8.064-14.157,7.706
					C169.854,371.068,166.091,366.946,166.091,366.946z"/>
				<path style="clip-path:url(#SVGID_00000121961979739993797040000009791914652707600798_);fill:#A4A4A4;" d="M179.398,357.971
					c-2.079,0.866-2.598,3.291-0.346,3.464c2.252,0.173,6.756-2.945,6.756-2.945l0.693-4.138c0.346-4.331,1.459-11.164,0.137-11.667
					c-1.868-0.712-7.475-0.843-9.162-0.445c-1.335,0.315-2.078,2.637-2.407,3.624c-1.039,3.118-3.464,12.388,4.898,9.986
					L179.398,357.971z"/>
				<path style="clip-path:url(#SVGID_00000121961979739993797040000009791914652707600798_);fill:#242424;" d="M177.976,344.425
					c0,0-1.512,3.558-5.426,3.647s-4.804-5.871-1.868-6.494c2.936-0.623,6.405,0.534,6.405,0.534s-1.423-2.758,1.957-2.758
					c3.38,0,4.181,2.758,4.181,2.758s1.512-1.779,2.669-1.334c1.156,0.445,0.356,1.779,0.356,1.779s2.491-0.267,2.313,0.89
					c-0.178,1.156-1.334,2.58-1.334,2.58s0,9.162-1.423,9.34c-1.423,0.178-2.313-4.448-2.313-4.448l-0.445-4.448
					C183.047,346.471,178.599,347.983,177.976,344.425z"/>
			</g>
		</g>
		
			<circle style="clip-path:url(#SVGID_00000011752939506946705340000007786519954013647492_);fill:#FFF7DC;" cx="90.013" cy="352.809" r="15.904"/>
		<g style="clip-path:url(#SVGID_00000011752939506946705340000007786519954013647492_);">
			<defs>
				<circle id="SVGID_00000121967160485650758090000007110193460911551368_" cx="90.013" cy="352.809" r="15.904"/>
			</defs>
			<clipPath id="SVGID_00000176735409845237202410000010998178178909653132_">
				<use xlink:href="#SVGID_00000121967160485650758090000007110193460911551368_"  style="overflow:visible;"/>
			</clipPath>
			<path style="clip-path:url(#SVGID_00000176735409845237202410000010998178178909653132_);fill:#7595EC;" d="M76.468,366.946
				c0,0,3.943-7.347,9.139-9.319s15.77,0.358,18.1,6.093s-4.839,8.064-14.157,7.706C80.231,371.068,76.468,366.946,76.468,366.946z"
				/>
			<path style="clip-path:url(#SVGID_00000176735409845237202410000010998178178909653132_);fill:#F9865F;" d="M89.775,357.971
				c-2.079,0.866-2.598,3.291-0.346,3.464c2.252,0.173,6.756-2.945,6.756-2.945l0.693-4.138c0.346-4.331,1.459-11.164,0.137-11.667
				c-1.868-0.712-7.475-0.843-9.162-0.445c-1.335,0.315-2.078,2.637-2.407,3.624c-1.039,3.118-3.464,12.388,4.898,9.986
				L89.775,357.971z"/>
			<path style="clip-path:url(#SVGID_00000176735409845237202410000010998178178909653132_);fill:#2A1E33;" d="M88.354,344.425
				c0,0-1.512,3.558-5.426,3.647c-3.914,0.089-4.804-5.871-1.868-6.494c2.936-0.623,6.405,0.534,6.405,0.534
				s-1.423-2.758,1.957-2.758s4.181,2.758,4.181,2.758s1.512-1.779,2.669-1.334c1.156,0.445,0.356,1.779,0.356,1.779
				s2.491-0.267,2.313,0.89c-0.178,1.156-1.334,2.58-1.334,2.58s0,9.162-1.423,9.34c-1.423,0.178-2.313-4.448-2.313-4.448
				l-0.445-4.448C93.424,346.471,88.976,347.983,88.354,344.425z"/>
		</g>
		
			<circle style="clip-path:url(#SVGID_00000011752939506946705340000007786519954013647492_);fill:#F6F6F6;" cx="133.552" cy="352.809" r="15.904"/>
		<g style="opacity:0.31;clip-path:url(#SVGID_00000011752939506946705340000007786519954013647492_);">
			<defs>
				
					<circle id="SVGID_00000183949904415664272100000000805376323743297440_" style="opacity:0.31;" cx="133.552" cy="352.809" r="15.904"/>
			</defs>
			<clipPath id="SVGID_00000075135016643721473800000017828856289446500797_">
				<use xlink:href="#SVGID_00000183949904415664272100000000805376323743297440_"  style="overflow:visible;"/>
			</clipPath>
			<path style="clip-path:url(#SVGID_00000075135016643721473800000017828856289446500797_);fill:#959595;" d="M120.007,366.946
				c0,0,3.943-7.347,9.139-9.319s15.77,0.358,18.1,6.093s-4.839,8.064-14.157,7.706
				C123.771,371.068,120.007,366.946,120.007,366.946z"/>
			<path style="clip-path:url(#SVGID_00000075135016643721473800000017828856289446500797_);fill:#A4A4A4;" d="M133.314,357.971
				c-2.079,0.866-2.598,3.291-0.346,3.464c2.252,0.173,6.756-2.945,6.756-2.945l0.693-4.138c0.346-4.331,1.459-11.164,0.137-11.667
				c-1.868-0.712-7.475-0.843-9.162-0.445c-1.335,0.315-2.078,2.637-2.407,3.624c-1.039,3.118-3.464,12.388,4.898,9.986
				L133.314,357.971z"/>
			<path style="clip-path:url(#SVGID_00000075135016643721473800000017828856289446500797_);fill:#242424;" d="M131.893,344.425
				c0,0-1.512,3.558-5.426,3.647c-3.914,0.089-4.804-5.871-1.868-6.494c2.936-0.623,6.405,0.534,6.405,0.534
				s-1.423-2.758,1.957-2.758c3.38,0,4.181,2.758,4.181,2.758s1.512-1.779,2.669-1.334c1.156,0.445,0.356,1.779,0.356,1.779
				s2.491-0.267,2.313,0.89c-0.178,1.156-1.334,2.58-1.334,2.58s0,9.162-1.423,9.34s-2.313-4.448-2.313-4.448l-0.445-4.448
				C136.963,346.471,132.516,347.983,131.893,344.425z"/>
		</g>
		
			<circle style="clip-path:url(#SVGID_00000011752939506946705340000007786519954013647492_);fill:#91BA83;" cx="864.131" cy="314.915" r="2.473"/>
		
			<circle style="clip-path:url(#SVGID_00000011752939506946705340000007786519954013647492_);fill:#91BA83;" cx="399.748" cy="196.291" r="2.473"/>
		
			<path style="clip-path:url(#SVGID_00000011752939506946705340000007786519954013647492_);fill:none;stroke:#2A1E17;stroke-linecap:round;stroke-linejoin:round;stroke-miterlimit:10;" d="
			M233.828,429.005"/>
		
			<circle style="clip-path:url(#SVGID_00000011752939506946705340000007786519954013647492_);fill:#2A1E17;" cx="892.892" cy="474.149" r="2.623"/>
		
			<circle style="clip-path:url(#SVGID_00000011752939506946705340000007786519954013647492_);fill:#2A1E17;" cx="1042.318" cy="385.611" r="2.623"/>
		
			<path style="clip-path:url(#SVGID_00000011752939506946705340000007786519954013647492_);fill:none;stroke:#2A1E17;stroke-linecap:round;stroke-linejoin:round;stroke-miterlimit:10;" d="
			M1042.909,384.657c0,0,20.591-61.312-71.466-25.14c-95.708,37.606-133.931,116.457-118.252,122.681
			c15.68,6.223,39.034-7.817,39.034-7.817"/>
		<g style="clip-path:url(#SVGID_00000011752939506946705340000007786519954013647492_);">
			<text transform="matrix(1 0 0 1 172.2386 38.3066)" style="fill:#2A1E33; font-family:'Poppins-Regular'; font-size:6.2096px;">By Design</text>
			<text transform="matrix(1 0 0 1 75.1429 38.0161)"><tspan x="0" y="0" style="fill:#2A1E33; font-family:'Poppins-Bold'; font-size:13.3143px;">Landing</tspan><tspan x="50.687" y="0" style="fill:#2A1E33; font-family:'Poppins-Light'; font-size:13.3143px;">Page</tspan></text>
			<circle style="fill:#7595EC;" cx="166.686" cy="36.138" r="2.119"/>
			<g>
				<path style="fill:#F9865F;" d="M63.521,26.619l3.977-0.1l2.01,6.245c0.205,0.638,0.165,1.329-0.112,1.938l-4.017,8.845
					l-4.136-8.907c-0.311-0.671-0.333-1.44-0.061-2.127L63.521,26.619z"/>
				<path style="fill:#2A1E17;" d="M67.498,26.518l-3.977,0.1l0.032-0.638c0.054-1.052,0.931-1.873,1.985-1.855l0,0
					c1.011,0.017,1.842,0.801,1.917,1.809L67.498,26.518z"/>
				
					<line style="fill:none;stroke:#FFFFFF;stroke-linecap:round;stroke-linejoin:round;stroke-miterlimit:10;" x1="65.379" y1="43.547" x2="65.392" y2="33.764"/>
			</g>
		</g>
	</g>
</g>
</svg>
